<svg xmlns="http://www.w3.org/2000/svg" viewBox="0 0 640 720" fill="none" role="img" aria-label="AIRuntime">
  <defs>
    <linearGradient id="mk-left" x1="96" y1="468" x2="248" y2="48" gradientUnits="userSpaceOnUse">
      <stop stop-color="#B8A4FF"/>
      <stop offset="0.4" stop-color="#8EC5FF"/>
      <stop offset="1" stop-color="#5EB8FF"/>
    </linearGradient>
    <linearGradient id="mk-right" x1="416" y1="468" x2="264" y2="48" gradientUnits="userSpaceOnUse">
      <stop stop-color="#4EE0D8"/>
      <stop offset="0.45" stop-color="#5EB8FF"/>
      <stop offset="1" stop-color="#7C8CFF"/>
    </linearGradient>
    <linearGradient id="mk-cross" x1="148" y1="318" x2="392" y2="278" gradientUnits="userSpaceOnUse">
      <stop stop-color="#F8FBFF"/>
      <stop offset="0.5" stop-color="#B8E6FF"/>
      <stop offset="1" stop-color="#7DD3FC"/>
    </linearGradient>
    <linearGradient id="mk-gleam" x1="228" y1="44" x2="292" y2="92" gradientUnits="userSpaceOnUse">
      <stop stop-color="#FFFFFF" stop-opacity="0.9"/>
      <stop offset="1" stop-color="#FFFFFF" stop-opacity="0"/>
    </linearGradient>
    <linearGradient id="mk-shadow" x1="256" y1="300" x2="256" y2="470" gradientUnits="userSpaceOnUse">
      <stop stop-color="#7C8CFF" stop-opacity="0.18"/>
      <stop offset="1" stop-color="#7C8CFF" stop-opacity="0"/>
    </linearGradient>
    <linearGradient id="ar-word-air" x1="0%" y1="0%" x2="100%" y2="0%">
      <stop stop-color="#38BDF8"/>
      <stop offset="1" stop-color="#2563EB"/>
    </linearGradient>
  </defs>

  <g transform="translate(64 4)">
    <ellipse cx="256" cy="404" rx="148" ry="42" fill="url(#mk-shadow)"/>
    <path
      d="M 132 458 C 96 392, 88 296, 104 204 C 118 144, 154 96, 204 66 C 226 54, 246 52, 256 58 C 236 82, 218 128, 206 178 C 192 236, 184 296, 180 354 C 196 322, 228 296, 256 286 C 224 308, 198 354, 184 402 C 170 442, 150 456, 132 458 Z"
      fill="url(#mk-left)"
      opacity="0.95"
    />
    <path
      d="M 380 458 C 416 392, 424 296, 408 204 C 394 144, 358 96, 308 66 C 286 54, 266 52, 256 58 C 276 82, 294 128, 306 178 C 320 236, 328 296, 332 354 C 316 322, 284 296, 256 286 C 288 308, 314 354, 328 402 C 342 442, 362 456, 380 458 Z"
      fill="url(#mk-right)"
      opacity="0.93"
    />
    <path
      d="M 164 312 C 206 282, 268 270, 332 280 C 370 286, 398 300, 408 314 C 380 334, 326 342, 268 340 C 210 338, 176 328, 164 312 Z"
      fill="url(#mk-cross)"
      opacity="0.97"
    />
    <path
      d="M 228 62 C 244 50, 258 48, 272 52 C 286 58, 294 68, 284 78 C 270 88, 252 90, 234 84 C 222 78, 216 70, 228 62 Z"
      fill="url(#mk-gleam)"
    />
  </g>

  <g transform="translate(142 612)">
    <path
      d="M 8 31.5 L 22 2 L 36 31.5"
      fill="none"
      stroke="url(#ar-word-air)"
      stroke-width="3.4"
      stroke-linecap="round"
      stroke-linejoin="round"
    />
    <g fill="url(#ar-word-air)">
      <path d="M47.6484375 0.0H44.0390625V30.80859375H47.6484375Z"/>
      <path d="M94.553984375 0.0H90.257109375L85.100859375 8.63671875Q84.391875 9.83984375 83.725859375 10.6884765625Q83.05984375 11.537109375 82.3616015625 12.07421875Q81.663359375 12.611328125 80.8576953125 12.8583984375Q80.05203125 13.10546875 79.042265625 13.10546875H76.077421875V0.0H72.468046875V30.80859375H81.663359375Q83.682890625 30.80859375 85.3908984375 30.3037109375Q87.09890625 29.798828125 88.3557421875 28.767578125Q89.612578125 27.736328125 90.3215625 26.2001953125Q91.030546875 24.6640625 91.030546875 22.6015625Q91.030546875 20.990234375 90.5471484375 19.6474609375Q90.06375 18.3046875 89.1721484375 17.251953125Q88.280546875 16.19921875 87.0237109375 15.4580078125Q85.766875 14.716796875 84.198515625 14.30859375V14.22265625Q84.971953125 13.87890625 85.5412890625 13.4384765625Q86.110625 12.998046875 86.62625 12.396484375Q87.141875 11.794921875 87.6467578125 11.0322265625Q88.151640625 10.26953125 88.7746875 9.259765625ZM76.077421875 27.54296875V16.37109375H80.975859375Q82.329375 16.37109375 83.4787890625 16.779296875Q84.628203125 17.1875 85.46609375 17.9501953125Q86.303984375 18.712890625 86.776640625 19.8193359375Q87.249296875 20.92578125 87.249296875 22.30078125Q87.249296875 24.771484375 85.6487109375 26.1572265625Q84.048125 27.54296875 81.018828125 27.54296875Z"/>
    </g>
    <g fill="#E8EEF7">
      <path d="M138.043515625 12.4609375Q138.043515625 -0.515625 126.33453125 -0.515625Q115.1196875 -0.515625 115.1196875 11.966796875V30.80859375H118.7290625V12.203125Q118.7290625 2.728515625 126.72125 2.728515625Q134.434140625 2.728515625 134.434140625 11.880859375V30.80859375H138.043515625Z"/>
      <path d="M187.290859375 0.0H182.865078125L167.009609375 24.556640625Q166.408046875 25.48046875 166.021328125 26.490234375H165.892421875Q166.064296875 25.501953125 166.064296875 22.2578125V0.0H162.454921875V30.80859375H167.138515625L182.564296875 6.638671875Q183.53109375 5.134765625 183.810390625 4.576171875H183.896328125Q183.681484375 5.908203125 183.681484375 9.109375V30.80859375H187.290859375Z"/>
      <path d="M230.307734375 27.54296875H221.413203125V0.0H217.803828125V27.54296875H208.93078125V30.80859375H230.307734375Z"/>
      <path d="M255.47109375 0.0H251.86171875V30.80859375H255.47109375Z"/>
      <path d="M311.700859375 0.0H308.11296875V20.66796875Q308.11296875 23.1171875 308.41375 26.662109375H308.3278125Q307.8121875 24.578125 307.403984375 23.67578125L296.876640625 0.0H295.114921875L284.6090625 23.50390625Q284.157890625 24.53515625 283.685234375 26.662109375H283.599296875Q283.771171875 24.814453125 283.771171875 20.625V0.0H280.290703125V30.80859375H285.060234375L294.513359375 9.32421875Q295.6090625 6.853515625 295.931328125 5.62890625H296.060234375Q296.9840625 8.1640625 297.54265625 9.41015625L307.189140625 30.80859375H311.700859375Z"/>
      <path d="M352.84859374999996 0.0H336.52046874999996V30.80859375H352.16109374999996V27.54296875H340.12984374999996V17.294921875H351.25874999999996V14.05078125H340.12984374999996V3.265625H352.84859374999996Z"/>
    </g>
  </g>
</svg>
